<svg width="16" height="16" viewBox="0 0 16 16" fill="none" xmlns="http://www.w3.org/2000/svg">
<mask id="path-1-inside-1_942_5695" fill="white">
<path d="M12 4.7L11.3 4L8 7.3L4.7 4L4 4.7L7.3 8L4 11.3L4.7 12L8 8.7L11.3 12L12 11.3L8.7 8L12 4.7Z"/>
</mask>
<path d="M12 4.7L11.3 4L8 7.3L4.7 4L4 4.7L7.3 8L4 11.3L4.7 12L8 8.7L11.3 12L12 11.3L8.7 8L12 4.7Z" fill="#161616" fill-opacity="0.25"/>
<path d="M12 4.7L12.7071 5.40711L13.4142 4.7L12.7071 3.99289L12 4.7ZM11.3 4L12.0071 3.29289L11.3 2.58579L10.5929 3.29289L11.3 4ZM8 7.3L7.29289 8.00711L8 8.71421L8.70711 8.00711L8 7.3ZM4.7 4L5.40711 3.29289L4.7 2.58579L3.99289 3.29289L4.7 4ZM4 4.7L3.29289 3.99289L2.58579 4.7L3.29289 5.40711L4 4.7ZM7.3 8L8.00711 8.70711L8.71421 8L8.00711 7.29289L7.3 8ZM4 11.3L3.29289 10.5929L2.58579 11.3L3.29289 12.0071L4 11.3ZM4.7 12L3.99289 12.7071L4.7 13.4142L5.40711 12.7071L4.7 12ZM8 8.7L8.70711 7.99289L8 7.28579L7.29289 7.99289L8 8.7ZM11.3 12L10.5929 12.7071L11.3 13.4142L12.0071 12.7071L11.3 12ZM12 11.3L12.7071 12.0071L13.4142 11.3L12.7071 10.5929L12 11.3ZM8.7 8L7.99289 7.29289L7.28579 8L7.99289 8.70711L8.7 8ZM12.7071 3.99289L12.0071 3.29289L10.5929 4.70711L11.2929 5.40711L12.7071 3.99289ZM10.5929 3.29289L7.29289 6.59289L8.70711 8.00711L12.0071 4.70711L10.5929 3.29289ZM8.70711 6.59289L5.40711 3.29289L3.99289 4.70711L7.29289 8.00711L8.70711 6.59289ZM3.99289 3.29289L3.29289 3.99289L4.70711 5.40711L5.40711 4.70711L3.99289 3.29289ZM3.29289 5.40711L6.59289 8.70711L8.00711 7.29289L4.70711 3.99289L3.29289 5.40711ZM6.59289 7.29289L3.29289 10.5929L4.70711 12.0071L8.00711 8.70711L6.59289 7.29289ZM3.29289 12.0071L3.99289 12.7071L5.40711 11.2929L4.70711 10.5929L3.29289 12.0071ZM5.40711 12.7071L8.70711 9.40711L7.29289 7.99289L3.99289 11.2929L5.40711 12.7071ZM7.29289 9.40711L10.5929 12.7071L12.0071 11.2929L8.70711 7.99289L7.29289 9.40711ZM12.0071 12.7071L12.7071 12.0071L11.2929 10.5929L10.5929 11.2929L12.0071 12.7071ZM12.7071 10.5929L9.40711 7.29289L7.99289 8.70711L11.2929 12.0071L12.7071 10.5929ZM9.40711 8.70711L12.7071 5.40711L11.2929 3.99289L7.99289 7.29289L9.40711 8.70711Z" fill="#575757" mask="url(#path-1-inside-1_942_5695)"/>
</svg>
