<svg width="20" height="20" viewBox="0 0 20 20" fill="none" xmlns="http://www.w3.org/2000/svg">
<path d="M16.7181 15.5813C17.6154 14.5014 18.2395 13.2213 18.5374 11.8492C18.8354 10.4771 18.7986 9.05341 18.43 7.69856C18.0615 6.34372 17.3721 5.09756 16.4201 4.06549C15.4681 3.03342 14.2816 2.2458 12.9608 1.76925C11.6401 1.2927 10.224 1.14123 8.83239 1.32766C7.44074 1.51409 6.11446 2.03294 4.96573 2.84031C3.817 3.64768 2.87961 4.71984 2.23284 5.96608C1.58607 7.21233 1.24895 8.596 1.25 10.0001C1.25049 12.0415 1.96988 14.0175 3.28194 15.5813L3.26944 15.5917C3.31319 15.6445 3.36319 15.6896 3.40831 15.7412C3.46456 15.806 3.52482 15.8662 3.58331 15.9292C3.75832 16.1188 3.93794 16.3012 4.12706 16.473C4.18425 16.5249 4.24356 16.5737 4.30206 16.624C4.50206 16.7965 4.70731 16.9598 4.92081 17.1123C4.94838 17.1318 4.97282 17.1556 5.00057 17.1752V17.1673C6.46438 18.1974 8.21063 18.7502 10.0006 18.7502C11.7905 18.7502 13.5367 18.1974 15.0006 17.1673V17.1751C15.0283 17.1555 15.0528 17.1317 15.0803 17.1122C15.2936 16.9596 15.4991 16.7963 15.6991 16.6239C15.7576 16.5739 15.8169 16.5248 15.8741 16.4728C16.0631 16.301 16.2428 16.1186 16.4178 15.9291C16.4761 15.8662 16.5362 15.8058 16.5928 15.7411C16.6378 15.6895 16.6879 15.6444 16.7317 15.5916L16.7181 15.5813ZM10 5.00008C10.5563 5.00008 11.1 5.16503 11.5625 5.47407C12.0251 5.78312 12.3855 6.22237 12.5984 6.73628C12.8113 7.2502 12.867 7.8157 12.7585 8.36127C12.6499 8.90685 12.3821 9.40798 11.9887 9.80132C11.5954 10.1947 11.0943 10.4625 10.5487 10.571C10.0031 10.6796 9.43762 10.6239 8.92371 10.411C8.40979 10.1981 7.97054 9.83764 7.66149 9.37512C7.35245 8.91261 7.1875 8.36884 7.1875 7.81258C7.1875 7.06666 7.48382 6.35129 8.01126 5.82384C8.53871 5.2964 9.25408 5.00008 10 5.00008ZM5.00444 15.5813C5.01523 14.7607 5.34871 13.9773 5.93271 13.4006C6.51672 12.824 7.30428 12.5005 8.125 12.5001H11.875C12.6957 12.5005 13.4833 12.824 14.0673 13.4007C14.6513 13.9773 14.9848 14.7607 14.9956 15.5813C13.6248 16.8165 11.8451 17.5001 10 17.5001C8.15487 17.5001 6.37516 16.8165 5.00444 15.5813Z" fill="white"/>
</svg>
