<svg width="23" height="27" viewBox="0 0 23 27" fill="none" xmlns="http://www.w3.org/2000/svg">
<g filter="url(#filter0_d_903_13379)">
<path d="M17.75 4H5.25C4.91848 4 4.60054 4.1317 4.36612 4.36612C4.1317 4.60054 4 4.91848 4 5.25V17.75C4 18.0815 4.1317 18.3995 4.36612 18.6339C4.60054 18.8683 4.91848 19 5.25 19H17.75C18.0815 19 18.3995 18.8683 18.6339 18.6339C18.8683 18.3995 19 18.0815 19 17.75V5.25C19 4.91848 18.8683 4.60054 18.6339 4.36612C18.3995 4.1317 18.0815 4 17.75 4ZM10.25 14.9375L7.125 11.8392L8.11925 10.875L10.25 12.966L14.8804 8.375L15.8753 9.36075L10.25 14.9375Z" fill="white"/>
</g>
<defs>
<filter id="filter0_d_903_13379" x="-4" y="0" width="31" height="31" filterUnits="userSpaceOnUse" color-interpolation-filters="sRGB">
<feFlood flood-opacity="0" result="BackgroundImageFix"/>
<feColorMatrix in="SourceAlpha" type="matrix" values="0 0 0 0 0 0 0 0 0 0 0 0 0 0 0 0 0 0 127 0" result="hardAlpha"/>
<feOffset dy="4"/>
<feGaussianBlur stdDeviation="2"/>
<feComposite in2="hardAlpha" operator="out"/>
<feColorMatrix type="matrix" values="0 0 0 0 0 0 0 0 0 0 0 0 0 0 0 0 0 0 0.25 0"/>
<feBlend mode="normal" in2="BackgroundImageFix" result="effect1_dropShadow_903_13379"/>
<feBlend mode="normal" in="SourceGraphic" in2="effect1_dropShadow_903_13379" result="shape"/>
</filter>
</defs>
</svg>
