<svg width="24" height="24" viewBox="0 0 24 24" fill="none" xmlns="http://www.w3.org/2000/svg">
<path d="M19.4698 11.83C18.8817 10.3088 17.8608 8.99331 16.5332 8.04604C15.2056 7.09878 13.6295 6.56129 11.9998 6.5C10.37 6.56129 8.79398 7.09878 7.46639 8.04604C6.1388 8.99331 5.11787 10.3088 4.52979 11.83C4.49007 11.9399 4.49007 12.0601 4.52979 12.17C5.11787 13.6912 6.1388 15.0067 7.46639 15.954C8.79398 16.9012 10.37 17.4387 11.9998 17.5C13.6295 17.4387 15.2056 16.9012 16.5332 15.954C17.8608 15.0067 18.8817 13.6912 19.4698 12.17C19.5095 12.0601 19.5095 11.9399 19.4698 11.83ZM11.9998 16.5C9.34979 16.5 6.54979 14.535 5.53479 12C6.54979 9.465 9.34979 7.5 11.9998 7.5C14.6498 7.5 17.4498 9.465 18.4648 12C17.4498 14.535 14.6498 16.5 11.9998 16.5Z" fill="white"/>
<path d="M11.9998 9C11.4064 9 10.8264 9.17595 10.3331 9.50559C9.83973 9.83524 9.45521 10.3038 9.22815 10.8519C9.00109 11.4001 8.94168 12.0033 9.05743 12.5853C9.17319 13.1672 9.45891 13.7018 9.87847 14.1213C10.298 14.5409 10.8326 14.8266 11.4145 14.9424C11.9965 15.0581 12.5997 14.9987 13.1478 14.7716C13.696 14.5446 14.1646 14.1601 14.4942 13.6667C14.8238 13.1734 14.9998 12.5933 14.9998 12C14.9998 11.2044 14.6837 10.4413 14.1211 9.87868C13.5585 9.31607 12.7954 9 11.9998 9ZM11.9998 14C11.6042 14 11.2175 13.8827 10.8886 13.6629C10.5597 13.4432 10.3034 13.1308 10.152 12.7654C10.0007 12.3999 9.96105 11.9978 10.0382 11.6098C10.1154 11.2219 10.3059 10.8655 10.5856 10.5858C10.8653 10.3061 11.2216 10.1156 11.6096 10.0384C11.9976 9.96126 12.3997 10.0009 12.7652 10.1522C13.1306 10.3036 13.443 10.56 13.6627 10.8889C13.8825 11.2178 13.9998 11.6044 13.9998 12C13.9998 12.5304 13.7891 13.0391 13.414 13.4142C13.0389 13.7893 12.5302 14 11.9998 14Z" fill="white"/>
</svg>
