<svg width="24" height="24" viewBox="0 0 24 24" fill="none" xmlns="http://www.w3.org/2000/svg">
<path d="M17 10H14V7C13.9996 6.60231 13.8414 6.22103 13.5602 5.93982C13.279 5.65861 12.8977 5.50044 12.5 5.5H11.4336C11.1931 5.50096 10.961 5.58814 10.7793 5.7457C10.5977 5.90325 10.4786 6.12074 10.4436 6.35865L10.0209 9.3169L8.2324 12H5V19H15.5C16.4279 18.999 17.3176 18.6299 17.9737 17.9737C18.6299 17.3176 18.999 16.4279 19 15.5V12C18.9994 11.4697 18.7885 10.9614 18.4136 10.5864C18.0386 10.2115 17.5303 10.0006 17 10ZM8 18H6V13H8V18ZM18 15.5C17.9992 16.1628 17.7356 16.7983 17.2669 17.2669C16.7983 17.7356 16.1628 17.9992 15.5 18H9V12.6514L10.9789 9.6831L11.4336 6.5H12.5C12.6326 6.50011 12.7597 6.55282 12.8534 6.64656C12.9472 6.74031 12.9999 6.86742 13 7V11H17C17.2651 11.0003 17.5193 11.1058 17.7067 11.2933C17.8942 11.4807 17.9997 11.7349 18 12V15.5Z" fill="white"/>
</svg>
