<svg width="24" height="24" viewBox="0 0 24 24" fill="none" xmlns="http://www.w3.org/2000/svg">
<path d="M17.8545 6.14513C17.787 6.07797 17.7018 6.03146 17.6088 6.01109C17.5158 5.99072 17.4189 5.99732 17.3295 6.03013L6.32951 10.0301C6.23465 10.0661 6.15297 10.1301 6.09534 10.2136C6.0377 10.2971 6.00684 10.3962 6.00684 10.4976C6.00684 10.5991 6.0377 10.6981 6.09534 10.7817C6.15297 10.8652 6.23465 10.9291 6.32951 10.9651L11.1295 12.8851L13.0495 17.6851C13.0856 17.7758 13.1474 17.854 13.2274 17.91C13.3073 17.9659 13.4019 17.9973 13.4995 18.0001C13.6006 17.9981 13.6986 17.9654 13.7807 17.9065C13.8628 17.8476 13.9252 17.7652 13.9595 17.6701L17.9595 6.67013C17.9936 6.58167 18.0018 6.48534 17.9832 6.39239C17.9646 6.29944 17.92 6.21368 17.8545 6.14513ZM13.4995 16.1001L12.1045 12.6001L14.4995 10.2051L13.7945 9.50013L11.3795 11.9151L7.89951 10.5001L16.6645 7.33513L13.4995 16.1001Z" fill="white"/>
</svg>
