<svg width="80" height="34" viewBox="0 0 80 34" fill="none" xmlns="http://www.w3.org/2000/svg">
<g id="&#208;&#155;&#208;&#190;&#208;&#179;&#208;&#190;">
<path id="Vector 1" d="M0 33.5774V0.422607H2.88303V33.5774H0Z" fill="#006CCF"/>
<path id="Vector 9" d="M77.1172 33.5774V0.422607H80.0002V33.5774H77.1172Z" fill="#006CCF"/>
<path id="Vector 7" d="M59.8203 33.5774V0.422607H62.7033V33.5774H59.8203Z" fill="#006CCF"/>
<path id="Vector 11" d="M54.0547 33.5774V0.422607H56.9377V33.5774H54.0547Z" fill="#006CCF"/>
<path id="Vector 6" d="M71.3516 33.5774V0.422607H74.2346V33.5774H71.3516Z" fill="#006CCF"/>
<path id="Vector 5" d="M48.2891 33.5774V0.422607H51.1721V33.5774H48.2891Z" fill="white"/>
<path id="Vector 4" d="M23.0625 33.5774V0.422607H25.9455V33.5774H23.0625Z" fill="#006CCF"/>
<path id="Vector 10" d="M28.8281 20.6038V0.422607H31.7112V20.6038H28.8281Z" fill="white"/>
<path id="Vector 12" d="M11.5312 8.35093V0.422607H14.4143V8.35093H11.5312Z" fill="#006CCF"/>
<path id="Vector 13" d="M65.5859 20.6039V12.6755H68.469V20.6039H65.5859Z" fill="#006CCF"/>
<path id="Vector 14" d="M45.4051 15.5585L34.5938 15.5585L34.5937 12.6754L45.4051 12.6754L45.4051 15.5585Z" fill="white"/>
<path id="Vector 15" d="M45.4051 20.6038L34.5938 20.6038L34.5937 17.7207L45.4051 17.7207L45.4051 20.6038Z" fill="white"/>
<path id="Vector 3" d="M17.2969 33.5774V0.422607H20.1799V33.5774H17.2969Z" fill="#006CCF"/>
<path id="Vector 2" d="M5.76562 33.5774V0.422607H8.64865V33.5774H5.76562Z" fill="#006CCF"/>
</g>
</svg>
