<svg width="50" height="42" viewBox="0 0 50 42" fill="none" xmlns="http://www.w3.org/2000/svg">
<path d="M20.9519 4.49141V8.78629L22.3066 8.81882C23.0312 8.85136 24.2598 8.94897 25.0474 9.04658L26.4651 9.2418L26.8746 7.35466C27.0952 6.31348 27.4102 4.88186 27.5677 4.16604C27.7567 3.45023 27.9773 2.31144 28.1033 1.62816C28.2923 0.294147 28.4498 0.229073 29.9935 0.814739C31.1906 1.27026 31.2221 1.43294 30.4346 4.29619C29.1744 8.91643 29.0169 9.99015 29.4894 10.1528C29.7415 10.2179 30.8441 10.771 31.9467 11.3892C33.0494 11.9749 34.1205 12.463 34.3095 12.463C34.4985 12.463 35.0656 11.8448 35.5697 11.0639C37.3969 8.33077 39.0036 6.28094 39.2871 6.28094C39.8227 6.28094 41.4294 7.61496 41.4294 8.07047C41.4294 8.29823 40.4527 9.69732 39.2556 11.1615L37.0503 13.8295L39.4446 16.2372C40.7678 17.5713 41.9649 18.645 42.0909 18.645C42.3115 18.645 46.785 16.5951 47.7931 16.0095C48.7697 15.4889 49.2108 15.6841 49.7148 17.0181C50.3134 18.6124 50.2504 18.6775 46.785 19.8163C45.3043 20.3044 43.9812 20.7924 43.8551 20.9226C43.7291 21.0527 43.8866 21.8336 44.2647 22.6796C44.7687 23.916 44.8318 24.3715 44.5167 24.9246C43.9496 26.0959 42.658 27.5601 41.5239 28.341L40.4842 29.0893L41.4294 30.2932C43.6346 33.0914 45.5248 35.9546 45.5248 36.5077C45.5248 36.8982 45.2413 37.1585 44.6742 37.2886C44.1702 37.3862 43.5086 37.5489 43.1621 37.6465C42.532 37.8418 41.6814 36.7355 39.1611 32.3105C38.6885 31.4971 38.1215 30.8789 37.9009 30.9114C36.8613 31.0415 33.7109 32.6358 33.6164 33.0588C33.5534 33.3191 33.963 34.8809 34.467 36.4752C35.0026 38.1021 35.4436 39.5662 35.4436 39.7289C35.4436 40.0543 33.4274 41.4208 32.9864 41.4208C32.6083 41.4208 31.9782 39.7289 31.1591 36.5728C30.7496 34.8809 30.3715 33.4493 30.3085 33.4493C30.277 33.4167 28.6703 33.4493 26.7486 33.5469L23.2517 33.677L22.9052 35.7269C22.6846 36.8331 22.5271 38.5576 22.5271 39.5337C22.5271 41.9414 22.0861 42.3319 20.0698 41.7787C19.2507 41.551 18.5576 41.3232 18.4946 41.2907C18.4001 41.1605 18.7782 39.5337 19.5343 36.703C20.4794 33.2866 20.5109 33.4167 19.3137 33.1239C18.7467 32.9938 18.1796 32.8961 18.0851 32.8961C17.9906 32.9287 17.203 32.7009 16.3839 32.4406C15.5333 32.1803 14.8402 32.0176 14.8087 32.0502C14.8087 32.1153 14.4307 32.7335 13.9896 33.4493C13.5486 34.1651 13.076 34.9785 12.9815 35.2388C12.3829 36.5728 10.8707 39.0131 10.4927 39.2408C9.95713 39.5988 7.72037 38.6226 7.72037 38.037C7.72037 37.7767 8.0354 37.1585 8.44495 36.6379C9.51608 35.3039 12.1309 31.4645 12.1309 31.2042C12.1309 31.1066 11.5323 30.7162 10.8077 30.3257C10.0831 29.9353 9.29555 29.4147 9.04352 29.1869C8.823 28.9266 8.50796 28.7314 8.38194 28.7314C8.25593 28.7314 7.84638 28.4386 7.43683 28.0481C6.83826 27.4625 6.68074 27.4299 6.3657 27.8529C2.86879 32.3756 2.04969 33.2215 2.04969 32.2129C2.04969 31.9851 1.60864 31.432 1.04158 30.9439L0.00195312 30.0329L1.29361 28.829C1.98669 28.1458 3.18383 27.072 3.97142 26.4213C5.16856 25.3801 5.29458 25.1849 4.91653 24.6968C4.12894 23.7207 2.77428 20.4345 2.74278 19.4259C2.71127 18.1895 5.04255 15.3262 7.34232 13.6994C8.16142 13.1462 8.8545 12.6582 8.886 12.6256C8.94901 12.5931 8.60247 11.6495 8.16142 10.4782C6.86976 7.09436 6.3657 5.36991 6.55473 4.84932C6.64924 4.58902 7.1533 4.13351 7.65736 3.87321C8.72849 3.28755 8.53946 2.96217 10.2722 8.16808C11.0598 10.5433 11.3748 11.1615 11.7843 11.0313C12.0679 10.9663 13.4225 10.4782 14.8087 10.0227C16.1949 9.53463 17.518 9.07912 17.7701 9.01405C18.0851 8.91644 18.1166 8.55853 17.9591 7.64749C17.581 5.72781 17.266 2.37651 17.455 2.18129C17.5495 2.11622 17.6125 1.62816 17.644 1.14011C17.644 0.424294 17.8331 0.229073 18.5891 0.0989265C19.1247 0.00131607 19.8493 -0.0312195 20.2588 0.0338516C20.9204 0.164001 20.9519 0.261612 20.9519 4.49141Z" fill="white"/>
<path d="M14.6232 14.2653C12.422 14.6538 10.1578 15.7544 7.20186 17.826C5.59809 18.959 4.90626 19.6711 5.03205 19.9948C5.34651 20.8041 8.11381 24.0734 9.68614 25.4653C11.4157 26.9867 14.1201 28.411 17.139 29.4468C19.8119 30.3532 26.1327 30.6769 29.6233 30.0942C33.3654 29.4792 37.8937 27.3428 40.3151 25.0445C41.1012 24.3 41.1012 24.2677 40.5667 23.3937C39.1516 21.1925 34.9063 17.9231 31.1012 16.1428C30.0006 15.6249 29.0258 15.2041 28.9314 15.2041C28.8371 15.2041 29.0258 15.5925 29.4031 16.0781C30.095 17.1139 30.9755 19.8006 30.9755 21.063C30.9755 24.9798 26.6987 28.9289 22.4849 28.8642C21.5415 28.8642 20.3465 28.7023 19.8748 28.5081C18.3654 27.8931 16.5729 26.1775 15.8811 24.6561C14.5918 21.8723 15.2836 16.7578 17.1704 14.6861L17.8622 13.9093L17.1075 13.9416C16.6987 13.974 15.5666 14.1035 14.6232 14.2653Z" fill="#161616"/>
<path d="M28.46 14.2006C28.46 14.33 28.9946 14.6214 29.6549 14.8156C30.3153 15.0098 31.5103 15.5277 32.2964 15.9485C33.114 16.3693 33.7115 16.5959 33.6172 16.4341C33.2084 15.7867 28.46 13.715 28.46 14.2006Z" fill="#161616"/>
</svg>
